<svg width="36" height="40" viewBox="0 0 36 40" fill="none" xmlns="http://www.w3.org/2000/svg">
<path d="M18 0.347809C8.06 0.347809 0 8.30574 0 18.1199C0 26.3542 5.68 33.2656 13.38 35.2798L18 39.8412L22.62 35.2798C30.32 33.2656 36 26.3542 36 18.1199C36 8.30574 27.94 0.347809 18 0.347809ZM18 4.29715C21.32 4.29715 24 6.94321 24 10.2212C24 13.4991 21.32 16.1452 18 16.1452C14.68 16.1452 12 13.4991 12 10.2212C12 6.94321 14.68 4.29715 18 4.29715ZM18 32.535C13 32.535 8.58 30.0074 6 26.1765C6.06 22.2469 14 20.0945 18 20.0945C21.98 20.0945 29.94 22.2469 30 26.1765C27.42 30.0074 23 32.535 18 32.535Z" fill="#666666"/>
</svg>
